PathFileType	4	(X/Y/Z)	 2.8Hzlow3min.trc
DataRate	CameraRate	NumFrames	NumMarkers	Units	OrigDataRate	OrigDataStartFrame	OrigNumFrames
200	200	10	35	m	200	626	1000
Frame#	Time	C7			LSH			RSH			MAN			RASI			LASI			HIPR			HIPL			RPSI			LPSI			COX			RTHI1			RTHI2			RTHI3			RTHI4			RSHA1			RSHA2			RSHA3			RSHA4			RHEEL			RMET5			RMET1			RTOE			LTHI1			LTHI2			LTHI3			LTHI4			LSHA1			LSHA2			LSHA3			LSHA4			LHEEL			LMET5			LMET1			LTOE			
		X1	Y1	Z1	X2	Y2	Z2	X3	Y3	Z3	X4	Y4	Z4	X5	Y5	Z5	X6	Y6	Z6	X7	Y7	Z7	X8	Y8	Z8	X9	Y9	Z9	X10	Y10	Z10	X11	Y11	Z11	X12	Y12	Z12	X13	Y13	Z13	X14	Y14	Z14	X15	Y15	Z15	X16	Y16	Z16	X17	Y17	Z17	X18	Y18	Z18	X19	Y19	Z19	X20	Y20	Z20	X21	Y21	Z21	X22	Y22	Z22	X23	Y23	Z23	X24	Y24	Z24	X25	Y25	Z25	X26	Y26	Z26	X27	Y27	Z27	X28	Y28	Z28	X29	Y29	Z29	X30	Y30	Z30	X31	Y31	Z31	X32	Y32	Z32	X33	Y33	Z33	X34	Y34	Z34	X35	Y35	Z35	
626	3.1300	-0.311866	1.425408	-0.527612	-0.248979	1.431594	-0.700754	-0.239859	1.401668	-0.364200	-0.182160	1.383085	-0.533583	-0.148774	0.987659	-0.435516	-0.155640	0.983092	-0.658716	-0.208545	1.038976	-0.404961	-0.207852	1.054907	-0.681712	-0.303396	1.027298	-0.491230	-0.305600	1.029229	-0.592634	-0.307233	1.037926	-0.539409	-0.224699	0.779576	-0.373696	-0.199353	0.725821	-0.376000	-0.139862	0.752033	-0.382055	-0.159425	0.810024	-0.381497	-0.243917	0.391570	-0.375478	-0.265508	0.354333	-0.379738	-0.211052	0.332779	-0.397913	-0.194879	0.369936	-0.396155	-0.378340	0.131183	-0.434397	-0.244370	0.043383	-0.404084	-0.221958	0.047267	-0.475806	-0.197961	0.038077	-0.468237	-0.239998	0.792006	-0.718783	-0.219548	0.734080	-0.720973	-0.157105	0.750564	-0.721031	-0.168546	0.809535	-0.719362	-0.287834	0.376469	-0.708573	-0.303284	0.338898	-0.704541	-0.244067	0.320305	-0.715691	-0.235984	0.363483	-0.718142	-0.382613	0.126046	-0.660817	-0.256847	0.043480	-0.710313	-0.217009	0.049317	-0.650572	-0.197250	0.040156	-0.654795	
627	3.1350	-0.311959	1.422983	-0.527531	-0.249058	1.428707	-0.700907	-0.240017	1.398860	-0.363949	-0.182099	1.380305	-0.533585	-0.149345	0.985252	-0.435308	-0.156476	0.980788	-0.658740	-0.209373	1.036328	-0.404840	-0.208872	1.052308	-0.681731	-0.304261	1.024226	-0.491093	-0.306506	1.026157	-0.592476	-0.308062	1.034882	-0.539253	-0.223843	0.776879	-0.373681	-0.198189	0.723271	-0.376248	-0.138929	0.749862	-0.382978	-0.158840	0.807726	-0.382136	-0.243117	0.389690	-0.376009	-0.265043	0.352648	-0.380251	-0.210994	0.330634	-0.398507	-0.194390	0.367651	-0.396631	-0.380427	0.130879	-0.434718	-0.247030	0.041822	-0.405003	-0.224764	0.045650	-0.477001	-0.200788	0.036366	-0.469528	-0.239870	0.789194	-0.718927	-0.219028	0.731410	-0.720848	-0.156694	0.748275	-0.720462	-0.168500	0.807193	-0.719012	-0.287111	0.374791	-0.708687	-0.302853	0.337413	-0.704747	-0.243726	0.318375	-0.715622	-0.235322	0.361489	-0.718101	-0.384034	0.125334	-0.660855	-0.258817	0.041993	-0.710326	-0.218933	0.047498	-0.650433	-0.199193	0.038219	-0.654625	
628	3.1400	-0.312045	1.420312	-0.527458	-0.249115	1.425572	-0.701052	-0.240148	1.395819	-0.363715	-0.182086	1.377292	-0.533603	-0.149899	0.982610	-0.435091	-0.157317	0.978240	-0.658763	-0.210198	1.033414	-0.404709	-0.209888	1.049456	-0.681743	-0.305132	1.020853	-0.490949	-0.307432	1.022778	-0.592296	-0.308893	1.031536	-0.539090	-0.222934	0.773983	-0.373638	-0.196998	0.720516	-0.376450	-0.137977	0.747455	-0.383940	-0.158212	0.805210	-0.382756	-0.242370	0.387598	-0.376418	-0.264582	0.350696	-0.380778	-0.210942	0.328247	-0.399139	-0.193911	0.365134	-0.397156	-0.382462	0.130248	-0.435121	-0.249572	0.040076	-0.405793	-0.227440	0.043903	-0.478332	-0.203437	0.034604	-0.471055	-0.239763	0.786209	-0.719083	-0.218546	0.728564	-0.720720	-0.156324	0.745793	-0.719841	-0.168481	0.804659	-0.718618	-0.286361	0.372878	-0.708789	-0.302400	0.335709	-0.704965	-0.243367	0.316220	-0.715549	-0.234642	0.359273	-0.718067	-0.385458	0.124410	-0.660834	-0.260800	0.040367	-0.710404	-0.220745	0.045632	-0.650209	-0.200985	0.036244	-0.654280	
629	3.1450	-0.312128	1.417393	-0.527394	-0.249156	1.422198	-0.701187	-0.240249	1.392553	-0.363501	-0.182105	1.374045	-0.533624	-0.150431	0.979723	-0.434872	-0.158157	0.975460	-0.658791	-0.211022	1.030224	-0.404561	-0.210903	1.046348	-0.681744	-0.306005	1.017188	-0.490796	-0.308376	1.019106	-0.592084	-0.309723	1.027904	-0.538916	-0.222023	0.770877	-0.373554	-0.195815	0.717550	-0.376578	-0.137068	0.744800	-0.384911	-0.157576	0.802466	-0.383332	-0.241701	0.385287	-0.376709	-0.264164	0.348520	-0.381232	-0.210867	0.325646	-0.399784	-0.193448	0.362390	-0.397725	-0.384400	0.129217	-0.435604	-0.251760	0.038238	-0.406332	-0.229804	0.042148	-0.479716	-0.205720	0.032950	-0.472737	-0.239665	0.783051	-0.719255	-0.218096	0.725542	-0.720600	-0.155990	0.743117	-0.719177	-0.168483	0.801920	-0.718177	-0.285600	0.370748	-0.708893	-0.301939	0.333790	-0.705185	-0.243002	0.313855	-0.715484	-0.233958	0.356844	-0.718047	-0.386867	0.123226	-0.660761	-0.262658	0.038698	-0.710599	-0.222315	0.043850	-0.649917	-0.202481	0.034361	-0.653770	
630	3.1500	-0.312213	1.414235	-0.527338	-0.249192	1.418592	-0.701307	-0.240318	1.389074	-0.363312	-0.182127	1.370537	-0.533652	-0.150935	0.976599	-0.434656	-0.158992	0.972443	-0.658821	-0.211837	1.026760	-0.404394	-0.211919	1.042983	-0.681735	-0.306880	1.013236	-0.490635	-0.309341	1.015148	-0.591844	-0.310549	1.023993	-0.538731	-0.221140	0.767571	-0.373402	-0.194683	0.714371	-0.376601	-0.136209	0.741908	-0.385776	-0.156964	0.799495	-0.383834	-0.241129	0.382755	-0.376900	-0.263825	0.346117	-0.381591	-0.210769	0.322817	-0.400429	-0.193022	0.359407	-0.398348	-0.386214	0.127701	-0.436161	-0.253442	0.036439	-0.406485	-0.231707	0.040540	-0.481062	-0.207469	0.031577	-0.474518	-0.239573	0.779732	-0.719481	-0.217671	0.722332	-0.720499	-0.155682	0.740237	-0.718478	-0.168493	0.798975	-0.717700	-0.284852	0.368448	-0.709051	-0.301473	0.331661	-0.705384	-0.242641	0.311284	-0.715435	-0.233285	0.354201	-0.718045	-0.388242	0.121736	-0.660653	-0.264248	0.037085	-0.710955	-0.223531	0.042279	-0.649597	-0.203557	0.032729	-0.653106	
631	3.1550	-0.312300	1.410840	-0.527292	-0.249221	1.414764	-0.701414	-0.240356	1.385393	-0.363149	-0.182152	1.366772	-0.533664	-0.151416	0.973253	-0.434437	-0.159812	0.969200	-0.658854	-0.212635	1.023021	-0.404201	-0.212942	1.039367	-0.681719	-0.307767	1.009017	-0.490458	-0.310330	1.010921	-0.591562	-0.311373	1.019816	-0.538538	-0.220337	0.764050	-0.373210	-0.193641	0.710975	-0.376537	-0.135429	0.738770	-0.386519	-0.156407	0.796284	-0.384219	-0.240649	0.379977	-0.377057	-0.263591	0.343474	-0.381837	-0.210665	0.319758	-0.401060	-0.192644	0.356207	-0.398974	-0.387900	0.125682	-0.436749	-0.254551	0.034815	-0.406191	-0.233061	0.039209	-0.482209	-0.208599	0.030554	-0.476231	-0.239480	0.776242	-0.719753	-0.217266	0.718929	-0.720439	-0.155396	0.737145	-0.717782	-0.168509	0.795815	-0.717197	-0.284121	0.365955	-0.709213	-0.301012	0.329324	-0.705552	-0.242284	0.308529	-0.715401	-0.232634	0.351361	-0.718061	-0.389583	0.119911	-0.660510	-0.265484	0.035635	-0.711502	-0.224324	0.041032	-0.649283	-0.204147	0.031478	-0.652305	
632	3.1600	-0.312396	1.407215	-0.527252	-0.249246	1.410731	-0.701507	-0.240364	1.381525	-0.363015	-0.182175	1.362755	-0.533655	-0.151878	0.969699	-0.434219	-0.160611	0.965756	-0.658902	-0.213412	1.019021	-0.403978	-0.213973	1.035509	-0.681702	-0.308669	1.004551	-0.490259	-0.311350	1.006448	-0.591244	-0.312199	1.015394	-0.538328	-0.219640	0.760302	-0.372963	-0.192732	0.707344	-0.376373	-0.134754	0.735365	-0.387005	-0.155935	0.792818	-0.384454	-0.240226	0.376890	-0.377332	-0.263475	0.340584	-0.382010	-0.210584	0.316478	-0.401662	-0.192343	0.352800	-0.399586	-0.389489	0.123232	-0.437343	-0.255124	0.033420	-0.405526	-0.233863	0.038181	-0.483014	-0.209162	0.029830	-0.477682	-0.239394	0.772564	-0.720054	-0.216870	0.715331	-0.720436	-0.155121	0.733847	-0.717136	-0.168525	0.792438	-0.716685	-0.283424	0.363298	-0.709396	-0.300557	0.326775	-0.705682	-0.241941	0.305586	-0.715378	-0.232007	0.348347	-0.718087	-0.390897	0.117782	-0.660329	-0.266338	0.034431	-0.712209	-0.224741	0.040113	-0.649071	-0.204321	0.030587	-0.651520	
633	3.1650	-0.312508	1.403373	-0.527216	-0.249274	1.406511	-0.701594	-0.240328	1.377473	-0.362894	-0.182184	1.358499	-0.533629	-0.152323	0.965956	-0.434002	-0.161392	0.962124	-0.658962	-0.214166	1.014782	-0.403713	-0.215016	1.031413	-0.681697	-0.309602	0.999858	-0.490028	-0.312402	1.001749	-0.590919	-0.313036	1.010750	-0.538101	-0.219079	0.756335	-0.372653	-0.191981	0.703485	-0.376111	-0.134191	0.731715	-0.387157	-0.155560	0.789095	-0.384515	-0.239903	0.373516	-0.377695	-0.263439	0.337440	-0.382209	-0.210555	0.313014	-0.402213	-0.192150	0.349219	-0.400163	-0.391063	0.120548	-0.437870	-0.255342	0.032231	-0.404646	-0.234259	0.037463	-0.483440	-0.209315	0.029373	-0.478719	-0.239312	0.768697	-0.720366	-0.216477	0.711533	-0.720497	-0.154851	0.730336	-0.716600	-0.168538	0.788850	-0.716203	-0.282765	0.360486	-0.709591	-0.300113	0.324017	-0.705753	-0.241614	0.302450	-0.715351	-0.231411	0.345154	-0.718107	-0.392198	0.115436	-0.660114	-0.266873	0.033449	-0.712982	-0.224913	0.039461	-0.649002	-0.204229	0.029992	-0.650894	
634	3.1700	-0.312638	1.399335	-0.527179	-0.249306	1.402111	-0.701687	-0.240254	1.373252	-0.362785	-0.182161	1.354022	-0.533590	-0.152760	0.962055	-0.433774	-0.162157	0.958321	-0.659040	-0.214894	1.010327	-0.403403	-0.216071	1.027092	-0.681710	-0.310572	0.994957	-0.489770	-0.313491	0.996847	-0.590592	-0.313888	1.005910	-0.537851	-0.218669	0.752178	-0.372293	-0.191413	0.699411	-0.375776	-0.133740	0.727826	-0.386975	-0.155292	0.785135	-0.384397	-0.239684	0.369916	-0.378127	-0.263467	0.334028	-0.382527	-0.210626	0.309394	-0.402705	-0.192093	0.345499	-0.400682	-0.392683	0.117748	-0.438270	-0.255498	0.031260	-0.403710	-0.234452	0.037018	-0.483569	-0.209264	0.029107	-0.479410	-0.239234	0.764647	-0.720678	-0.216078	0.707537	-0.720637	-0.154574	0.726623	-0.716241	-0.168542	0.785071	-0.715812	-0.282133	0.357496	-0.709722	-0.299677	0.321068	-0.705755	-0.241301	0.299149	-0.715306	-0.230845	0.341795	-0.718108	-0.393509	0.112968	-0.659861	-0.267267	0.032636	-0.713742	-0.224991	0.039023	-0.649055	-0.204028	0.029642	-0.650433	
635	3.1750	-0.312791	1.395123	-0.527142	-0.249342	1.397556	-0.701796	-0.240146	1.368880	-0.362681	-0.182101	1.349378	-0.533531	-0.153197	0.958022	-0.433530	-0.162907	0.954388	-0.659141	-0.215600	1.005681	-0.403043	-0.217129	1.022561	-0.681755	-0.311591	0.989886	-0.489476	-0.314622	0.991771	-0.590262	-0.314765	1.000905	-0.537579	-0.218433	0.747854	-0.371929	-0.191041	0.695151	-0.375402	-0.133439	0.723717	-0.386593	-0.155147	0.780956	-0.384108	-0.239593	0.366171	-0.378558	-0.263587	0.330446	-0.382900	-0.210825	0.305697	-0.403118	-0.192198	0.341705	-0.401118	-0.394406	0.114930	-0.438527	-0.255758	0.030480	-0.402885	-0.234610	0.036770	-0.483489	-0.209180	0.028941	-0.479780	-0.239141	0.760390	-0.720927	-0.215671	0.703353	-0.720860	-0.154282	0.722727	-0.716121	-0.168535	0.781108	-0.715565	-0.281518	0.354308	-0.709726	-0.299257	0.317960	-0.705694	-0.241005	0.295704	-0.715235	-0.230313	0.338304	-0.718086	-0.394859	0.110448	-0.659563	-0.267688	0.031953	-0.714425	-0.225090	0.038741	-0.649199	-0.203842	0.029438	-0.650142	
